<?xml version="1.0" standalone="no"?>
<!DOCTYPE svg PUBLIC "-//W3C//DTD SVG 20010904//EN"
 "http://www.w3.org/TR/2001/REC-SVG-20010904/DTD/svg10.dtd">
<svg version="1.0" xmlns="http://www.w3.org/2000/svg"
 width="515.000000pt" height="515.000000pt" viewBox="0 0 515.000000 515.000000"
 preserveAspectRatio="xMidYMid meet">
<metadata>
Created by potrace 1.14, written by Peter Selinger 2001-2017
</metadata>
<g transform="translate(0.000000,515.000000) scale(0.100000,-0.100000)"
fill="#000000" stroke="none">
<path d="M3005 4969 c-170 -61 -320 -146 -432 -245 -199 -175 -367 -545 -407
-896 -15 -125 -18 -147 -26 -198 -5 -30 -12 -75 -15 -100 -4 -25 -12 -76 -20
-115 -8 -38 -16 -86 -19 -105 -3 -19 -16 -87 -30 -150 -13 -63 -27 -133 -31
-155 -9 -60 -15 -96 -25 -138 -21 -96 34 -365 114 -555 26 -62 123 -225 137
-230 5 -2 9 -8 9 -13 0 -5 -12 -4 -27 2 -16 7 -37 15 -48 19 -11 4 -36 15 -56
24 -122 53 -250 96 -469 156 -108 29 -152 42 -215 61 -38 11 -77 22 -85 24 -8
2 -40 11 -70 20 -30 9 -118 32 -195 51 -76 19 -142 37 -147 40 -4 3 -4 12 -1
20 10 26 70 13 418 -90 66 -20 175 -50 241 -67 109 -28 124 -30 149 -18 57 28
83 92 61 151 -13 34 -68 63 -198 105 -49 15 -88 30 -88 33 0 3 13 11 29 18 41
18 68 67 66 124 0 46 0 46 35 52 81 13 127 116 88 196 l-21 41 22 15 c46 33
67 106 46 158 -26 61 -174 187 -276 234 -51 23 -59 38 -59 113 0 36 11 68 51
145 49 94 51 102 46 159 -8 90 -46 153 -111 184 -46 23 -78 21 -115 -7 -29
-21 -37 -47 -46 -140 -3 -37 -8 -76 -11 -87 -9 -31 -91 -102 -148 -127 -114
-49 -358 -178 -398 -208 -24 -18 -76 -73 -116 -122 -51 -62 -79 -88 -95 -88
-42 -1 -102 -37 -167 -101 -36 -35 -79 -76 -95 -90 -69 -60 -97 -109 -120
-215 -15 -70 -57 -309 -56 -319 0 -2 -6 -23 -14 -46 -9 -23 -17 -51 -20 -63
-2 -12 -10 -41 -16 -66 -17 -67 -18 -216 -2 -284 26 -111 93 -211 186 -275 71
-48 149 -77 637 -232 176 -55 306 -107 418 -167 39 -20 103 -55 143 -76 41
-21 91 -50 111 -63 21 -12 41 -23 46 -23 15 0 73 -63 92 -99 20 -41 121 -344
146 -441 26 -103 40 -244 40 -403 l-1 -147 1649 0 1648 0 -6 78 c-4 42 -9 84
-11 92 -2 8 -6 38 -10 65 -7 57 -29 170 -46 230 -31 115 -225 447 -348 596
-150 181 -345 332 -594 459 -48 24 -76 46 -93 72 -42 66 -62 73 -207 75 -71 1
-130 3 -132 5 -2 2 -5 19 -7 38 l-4 34 95 47 c105 52 168 96 281 197 111 100
177 169 228 242 114 160 141 183 206 168 70 -16 129 18 205 118 4 5 23 41 40
80 75 161 85 200 86 319 0 88 -3 107 -25 150 -19 36 -37 56 -65 70 -22 11 -42
21 -43 22 -2 1 -5 138 -7 305 -2 167 -6 321 -10 343 -29 178 -40 231 -69 305
-17 47 -54 119 -81 160 -58 88 -203 237 -295 304 -63 47 -200 130 -250 153
-75 33 -154 64 -230 90 l-85 28 -290 1 -290 1 -80 -28z"/>
</g>
</svg>
